<?xml version="1.0" encoding="UTF-8" standalone="no"?>
<svg
   xmlns:osb="http://www.openswatchbook.org/uri/2009/osb"
   xmlns:dc="http://purl.org/dc/elements/1.1/"
   xmlns:cc="http://creativecommons.org/ns#"
   xmlns:rdf="http://www.w3.org/1999/02/22-rdf-syntax-ns#"
   xmlns:svg="http://www.w3.org/2000/svg"
   xmlns="http://www.w3.org/2000/svg"
   id="svg885"
   version="1.1"
   viewBox="0 0 13.229166 10.583334"
   height="40"
   width="50">
  <defs
     id="defs879">
    <linearGradient
       osb:paint="solid"
       id="linearGradient3822">
      <stop
         id="stop3820"
         offset="0"
         style="stop-color:#000000;stop-opacity:1;" />
    </linearGradient>
    <linearGradient
       osb:paint="solid"
       id="linearGradient2204">
      <stop
         id="stop2202"
         offset="0"
         style="stop-color:#ffffff;stop-opacity:1;" />
    </linearGradient>
  </defs>
  <metadata
     id="metadata882">
    <rdf:RDF>
      <cc:Work
         rdf:about="">
        <dc:format>image/svg+xml</dc:format>
        <dc:type
           rdf:resource="http://purl.org/dc/dcmitype/StillImage" />
        <dc:title></dc:title>
      </cc:Work>
    </rdf:RDF>
  </metadata>
  <g
     transform="translate(0,-286.41665)"
     id="layer1">
    <path
       id="path1434-3"
       transform="matrix(0.26458333,0,0,0.26458333,0,286.41665)"
       d="m 25.085938,8.8886719 a 9.0444998,9.0444998 0 0 0 -8.533204,6.0781251 6.875083,8.0957747 0 0 0 -4.449218,3.546875 c 0.588911,-0.454689 0.635917,-0.46998 0.996093,-0.646484 0.104557,-0.0514 0.347657,-0.115235 0.347657,-0.115235 l 0.423828,0.279297 c 0.862883,0.57925 1.430806,1.021473 1.802734,1.289062 0.371934,0.268725 0.500631,0.286227 0.433594,0.283204 -0.06704,-0.003 0.0082,0.0069 0.361328,-0.228516 0.353158,-0.235465 0.906273,-0.638873 1.746094,-1.167969 l 0.345703,-0.21875 0.382812,0.138672 c 0,0 0.697513,0.255352 1.554688,0.837891 1.995848,1.356397 5.178572,4.747453 4.232422,11.199218 -0.0021,0.01512 -0.0078,0.03711 -0.0078,0.03711 0,0 -8.11e-4,0.0086 -0.0098,0.03125 -0.04037,0.104315 -0.08594,0.191406 -0.08594,0.191406 -0.04134,0.09146 -0.167969,0.205078 -0.167969,0.205078 -0.261555,0.232819 -0.610988,0.341924 -0.710937,0.345703 -0.211567,0.0095 -0.03692,-4.74e-4 -0.09961,0.002 h 8.074218 A 6.875083,8.0957747 0 0 0 32.125,31 6.875083,8.0957747 0 0 0 39,22.904297 6.875083,8.0957747 0 0 0 33.632812,15.011719 9.0444998,9.0444998 0 0 0 32.414062,12.654297 c -0.789309,-0.603585 -1.724479,-0.982422 -2.875,-0.982422 -1.542429,0 -2.544921,0.710513 -2.544921,1.826172 0,1.200179 1.188788,1.654853 2.248047,2.060547 l 1.951171,0.761718 C 32.772956,16.945758 34,17.790285 34,19.632812 c 0,1.960856 -1.785633,3.515626 -4.628906,3.515626 -1.932682,0 -3.586048,-0.709234 -4.775391,-1.841797 l 1.023438,-1.064453 c 0.984924,0.929715 2.359139,1.537109 3.771484,1.537109 1.784015,0 2.861328,-0.810262 2.861328,-2.027344 0,-1.267794 -0.985317,-1.673244 -2.267578,-2.197265 l -1.96875,-0.777344 c -1.263677,-0.490214 -2.769531,-1.370968 -2.769531,-3.179688 0,-1.910143 1.821365,-3.294922 4.292968,-3.294922 0.132689,0 0.266671,-0.01116 0.394532,0.01172 A 9.0444998,9.0444998 0 0 0 25.085938,8.8886719 Z m 5.341796,1.7597661 c 0.02652,0.02 0.06916,0.05079 0.0918,0.06836 a 9.0444998,9.0444998 0 0 0 -0.0918,-0.06836 z m 0.666016,0.542968 c 0.03853,0.03264 0.102484,0.09143 0.154297,0.138672 A 9.0444998,9.0444998 0 0 0 31.09375,11.191406 Z m -17.728516,8.541016 c -0.207242,0.119357 -0.315202,0.172108 -0.667968,0.40039 -0.586086,0.379389 -1.188013,1.019553 -1.289063,1.125 -0.141504,0.182729 -0.31362,0.450268 -0.328125,0.472657 A 6.875083,8.0957747 0 0 0 11,22.904297 a 6.875083,8.0957747 0 0 0 2.595703,6.333984 c 0,0 -0.5259,0.01357 0.556641,0.01563 1.082541,0.0038 2.501882,0.0065 3.921875,0.0078 1.419992,0.0013 2.840311,0.0013 3.921875,0 0.440517,-5.29e-4 0.775187,-0.0027 1.080078,-0.0039 0.529114,-5.326827 -1.939262,-7.829021 -3.521484,-8.904296 -0.504275,-0.342804 -0.660865,-0.384213 -0.839844,-0.460938 -0.515778,0.340158 -0.998564,0.668828 -1.316406,0.88086 -0.412991,0.275186 -0.815262,0.534269 -1.367188,0.507812 -0.551926,-0.02491 -0.915587,-0.296428 -1.333984,-0.597656 C 14.38029,20.455574 13.885189,20.0979 13.365234,19.732422 Z m -1.847656,0.113281 a 6.875083,8.0957747 0 0 0 -0.255859,0.849609 c 0.07148,-0.302452 0.160651,-0.576069 0.255859,-0.849609 z m -0.328125,1.214844 a 6.875083,8.0957747 0 0 0 -0.0918,0.519531 c 0.0097,-0.07475 0.04893,-0.283896 0.0918,-0.519531 z m 2.890625,8.589844 a 6.875083,8.0957747 0 0 0 0.185547,0.136718 c -0.05944,-0.04609 -0.146713,-0.107995 -0.185547,-0.136718 z M 14.578125,30 a 6.875083,8.0957747 0 0 0 0.683594,0.384766 C 14.968316,30.234215 14.740984,30.105909 14.578125,30 Z m 3.210937,0.996094 A 6.875083,8.0957747 0 0 0 17.875,31 6.875083,8.0957747 0 0 0 17.96875,30.9961 c -0.06166,-6.3e-5 -0.118982,1.22e-4 -0.179688,0 z"
       style="fill:#000000;fill-opacity:1;stroke:none;stroke-width:0.44635504;stroke-linecap:round;stroke-linejoin:round;stroke-miterlimit:4;stroke-dasharray:none;stroke-opacity:1" />
  </g>
</svg>
