<?xml version="1.0" encoding="iso-8859-1"?>
<!-- Generator: Adobe Illustrator 19.0.0, SVG Export Plug-In . SVG Version: 6.00 Build 0)  -->
<svg version="1.1" id="Capa_1" xmlns="http://www.w3.org/2000/svg" xmlns:xlink="http://www.w3.org/1999/xlink" x="0px" y="0px"
	 viewBox="0 0 512 512" style="enable-background:new 0 0 512 512;" xml:space="preserve">
<g>
	<g>
		<path style="fill:#3F5C6C;" d="M44.138,459.034h61.793v44.138c0,4.875-3.952,8.828-8.828,8.828H52.966
			c-4.875,0-8.828-3.952-8.828-8.828V459.034z"/>
		<path style="fill:#3F5C6C;" d="M406.069,459.034h61.793v44.138c0,4.875-3.952,8.828-8.828,8.828h-44.138
			c-4.875,0-8.828-3.952-8.828-8.828V459.034z"/>
	</g>
	<path style="fill:#2C3E50;" d="M123.586,0c9.751,0,17.655,7.904,17.655,17.655v211.862h-35.31V17.655
		C105.931,7.904,113.836,0,123.586,0z"/>
	<path style="fill:#3F5C6C;" d="M466.406,248.887c-9.84-22.492-32.062-37.025-56.612-37.025H102.207
		c-24.55,0-46.772,14.533-56.612,37.025L0,353.103v70.621c0,9.751,7.904,17.655,17.655,17.655h476.69
		c9.751,0,17.655-7.904,17.655-17.655v-70.621L466.406,248.887z"/>
	<path style="fill:#95A5A5;" d="M17.655,423.724h476.69v35.31c0,9.751-7.904,17.655-17.655,17.655H35.31
		c-9.751,0-17.655-7.905-17.655-17.655V423.724z"/>
	<path style="fill:#BDC3C7;" d="M0,353.103h512v70.621c0,9.751-7.905,17.655-17.655,17.655H17.655
		C7.904,441.379,0,433.475,0,423.724V353.103z"/>
	<g>
		<path style="fill:#F3D55B;" d="M132.414,406.069h-17.655c-4.875,0-8.828-3.952-8.828-8.828c0-4.875,3.952-8.828,8.828-8.828
			h17.655c4.875,0,8.828,3.952,8.828,8.828C141.241,402.117,137.289,406.069,132.414,406.069z"/>
		<path style="fill:#F3D55B;" d="M185.379,406.069h-17.655c-4.875,0-8.828-3.952-8.828-8.828c0-4.875,3.952-8.828,8.828-8.828
			h17.655c4.875,0,8.828,3.952,8.828,8.828C194.207,402.117,190.255,406.069,185.379,406.069z"/>
		<path style="fill:#F3D55B;" d="M238.345,406.069H220.69c-4.875,0-8.828-3.952-8.828-8.828c0-4.875,3.952-8.828,8.828-8.828h17.655
			c4.875,0,8.828,3.952,8.828,8.828C247.172,402.117,243.22,406.069,238.345,406.069z"/>
	</g>
	<g>
		<path style="fill:#527F72;" d="M291.31,406.069h-17.655c-4.875,0-8.828-3.952-8.828-8.828c0-4.875,3.952-8.828,8.828-8.828h17.655
			c4.875,0,8.828,3.952,8.828,8.828C300.138,402.117,296.186,406.069,291.31,406.069z"/>
		<path style="fill:#527F72;" d="M344.276,406.069h-17.655c-4.875,0-8.828-3.952-8.828-8.828c0-4.875,3.952-8.828,8.828-8.828
			h17.655c4.875,0,8.828,3.952,8.828,8.828C353.103,402.117,349.151,406.069,344.276,406.069z"/>
		<path style="fill:#527F72;" d="M397.241,406.069h-17.655c-4.875,0-8.828-3.952-8.828-8.828c0-4.875,3.952-8.828,8.828-8.828
			h17.655c4.875,0,8.828,3.952,8.828,8.828C406.069,402.117,402.117,406.069,397.241,406.069z"/>
	</g>
	<g>
		<path style="fill:#547580;" d="M70.621,291.31c-3.57-0.001-6.788-2.152-8.154-5.45c-1.366-3.298-0.611-7.094,1.913-9.619
			l17.655-17.655c3.456-3.394,9.001-3.369,12.426,0.056c3.425,3.425,3.45,8.97,0.056,12.426l-17.655,17.655
			C75.208,290.382,72.962,291.313,70.621,291.31z"/>
		<path style="fill:#547580;" d="M105.931,256c-3.569-0.014-6.782-2.168-8.151-5.464s-0.626-7.093,1.883-9.631
			c2.112-2.083,5.124-2.977,8.03-2.383c0.554,0.095,1.09,0.272,1.59,0.526c0.563,0.194,1.098,0.462,1.591,0.797
			c0.462,0.327,0.904,0.681,1.324,1.06c1.611,1.693,2.525,3.931,2.56,6.268c-0.016,0.591-0.075,1.18-0.177,1.763
			c-0.098,0.553-0.277,1.089-0.53,1.59c-0.194,0.563-0.462,1.098-0.797,1.591c-0.605,0.961-1.418,1.774-2.379,2.379
			c-0.492,0.335-1.027,0.603-1.591,0.797c-0.501,0.253-1.037,0.432-1.59,0.53C107.112,255.925,106.522,255.984,105.931,256z"/>
		<path style="fill:#547580;" d="M88.276,326.621c-3.57-0.001-6.788-2.152-8.154-5.45c-1.366-3.298-0.611-7.094,1.913-9.619
			l70.621-70.621c3.456-3.394,9.001-3.369,12.426,0.056c3.425,3.425,3.45,8.97,0.056,12.426l-70.621,70.621
			C92.864,325.692,90.618,326.623,88.276,326.621z"/>
	</g>
	<rect x="105.931" y="35.31" style="fill:#3F5C6C;" width="35.31" height="35.31"/>
</g>
<g>
</g>
<g>
</g>
<g>
</g>
<g>
</g>
<g>
</g>
<g>
</g>
<g>
</g>
<g>
</g>
<g>
</g>
<g>
</g>
<g>
</g>
<g>
</g>
<g>
</g>
<g>
</g>
<g>
</g>
</svg>
